<svg width="0" height="0" class="hidden">
  <symbol viewBox="0 0 29 20" xmlns="http://www.w3.org/2000/svg" id="youtube">
    <path d="M22.394 0H5.87A5.87 5.87 0 0 0 0 5.87v8.26A5.87 5.87 0 0 0 5.87 20h16.524a5.87 5.87 0 0 0 5.87-5.87V5.87A5.87 5.87 0 0 0 22.393 0zm-3.97 10.402l-7.729 3.686a.31.31 0 0 1-.444-.28V6.205a.31.31 0 0 1 .45-.276l7.73 3.916a.31.31 0 0 1-.007.557z"
      ></path>
  </symbol>
  <symbol viewBox="0 0 36 20" xmlns="http://www.w3.org/2000/svg" id="vk">
    <path d="M34.868 18.062a2.402 2.402 0 0 0-.118-.228c-.609-1.095-1.77-2.44-3.486-4.034l-.037-.036-.018-.018-.018-.019h-.019c-.778-.742-1.271-1.24-1.478-1.496-.377-.487-.462-.98-.256-1.479.146-.377.694-1.174 1.643-2.39.499-.646.894-1.162 1.186-1.552 2.105-2.799 3.018-4.587 2.738-5.366l-.109-.182c-.073-.11-.261-.21-.565-.301-.305-.091-.694-.106-1.169-.045l-5.256.036c-.085-.03-.207-.028-.365.009l-.237.055-.092.046-.072.055a.811.811 0 0 0-.201.191 1.252 1.252 0 0 0-.182.32 29.798 29.798 0 0 1-1.954 4.106c-.45.754-.863 1.408-1.24 1.962-.378.553-.694.961-.95 1.223a6.615 6.615 0 0 1-.693.63c-.207.158-.365.225-.475.2-.11-.024-.212-.049-.31-.073a1.214 1.214 0 0 1-.41-.447 2.004 2.004 0 0 1-.21-.712 7.87 7.87 0 0 1-.065-.74c-.005-.206-.003-.498.01-.875a29.5 29.5 0 0 0 .018-.767c0-.462.01-.964.027-1.506.019-.541.033-.97.046-1.286.012-.317.018-.651.018-1.004s-.021-.63-.064-.83a2.84 2.84 0 0 0-.191-.585.983.983 0 0 0-.374-.438 2.11 2.11 0 0 0-.612-.246c-.645-.146-1.466-.225-2.464-.237-2.263-.025-3.717.121-4.362.438a2.458 2.458 0 0 0-.693.547c-.22.268-.25.414-.092.438.73.11 1.247.371 1.552.785l.11.219c.085.158.17.438.255.84.085.401.14.845.164 1.332.06.888.06 1.648 0 2.281a27.266 27.266 0 0 1-.173 1.478c-.055.353-.137.64-.247.858a3.62 3.62 0 0 1-.219.402.314.314 0 0 1-.091.09 1.34 1.34 0 0 1-.493.092c-.17 0-.377-.085-.62-.255a4.378 4.378 0 0 1-.758-.703c-.261-.298-.556-.715-.885-1.25A21.825 21.825 0 0 1 9.29 5.697l-.292-.53c-.183-.34-.432-.836-.748-1.487a28.684 28.684 0 0 1-.84-1.89 1.203 1.203 0 0 0-.438-.583l-.091-.055a1.25 1.25 0 0 0-.292-.155 1.937 1.937 0 0 0-.42-.119l-5 .036c-.512 0-.858.116-1.041.347l-.073.11A.59.59 0 0 0 0 1.663c0 .134.037.298.11.493A60.23 60.23 0 0 0 2.49 7.12c.858 1.594 1.603 2.878 2.236 3.85a45.499 45.499 0 0 0 1.935 2.757c.657.864 1.092 1.417 1.304 1.66.213.244.38.426.503.548l.456.438c.292.292.72.642 1.286 1.05.566.407 1.193.809 1.88 1.205.688.395 1.488.717 2.4.966.913.25 1.801.35 2.665.302h2.1c.425-.037.747-.17.967-.402l.072-.091c.049-.073.095-.186.137-.337a1.85 1.85 0 0 0 .064-.502 6.009 6.009 0 0 1 .118-1.415c.091-.42.195-.736.31-.949.117-.213.248-.392.393-.538.146-.146.25-.234.31-.265.062-.03.11-.051.146-.063.292-.098.636-.003 1.032.283.395.286.766.639 1.113 1.058.347.42.764.892 1.25 1.415.487.523.913.912 1.278 1.168l.365.219c.244.146.56.28.95.401.388.122.729.152 1.021.092l4.672-.073c.462 0 .822-.077 1.077-.229.256-.152.407-.32.456-.502.05-.182.052-.389.01-.62a2.295 2.295 0 0 0-.129-.484z"
     ></path>
  </symbol>
  <symbol viewBox="0 0 20 20"  xmlns="http://www.w3.org/2000/svg" id="facebook">
    <path d="M15 .004L12.405 0C9.492 0 7.609 1.932 7.609 4.922v2.27H5.001a.408.408 0 0 0-.407.407v3.288c0 .226.182.408.407.408H7.61v8.297c0 .226.183.408.408.408h3.402a.408.408 0 0 0 .408-.408v-8.297h3.05a.408.408 0 0 0 .407-.408l.001-3.288a.408.408 0 0 0-.408-.408h-3.05V5.268c0-.925.22-1.394 1.425-1.394L15 3.873a.408.408 0 0 0 .408-.408V.412A.408.408 0 0 0 15 .004z"
      ></path>
  </symbol>
  <symbol viewBox="0 0 20 20"  xmlns="http://www.w3.org/2000/svg" id="instagram">
    <path d="M13.75 0h-7.5A6.25 6.25 0 0 0 0 6.25v7.5A6.25 6.25 0 0 0 6.25 20h7.5A6.25 6.25 0 0 0 20 13.75v-7.5A6.25 6.25 0 0 0 13.75 0zm4.375 13.75a4.38 4.38 0 0 1-4.375 4.375h-7.5a4.38 4.38 0 0 1-4.375-4.375v-7.5A4.38 4.38 0 0 1 6.25 1.875h7.5a4.38 4.38 0 0 1 4.375 4.375v7.5z"
      ></path>
    <path d="M10 5a5 5 0 1 0 0 10 5 5 0 0 0 0-10zm0 8.125A3.13 3.13 0 0 1 6.875 10 3.129 3.129 0 0 1 10 6.875 3.129 3.129 0 0 1 13.125 10 3.13 3.13 0 0 1 10 13.125zm5.375-7.834a.666.666 0 1 0 0-1.332.666.666 0 0 0 0 1.332z"></path>
  </symbol>
  <symbol viewBox="0 0 40 40" fill="none" xmlns="http://www.w3.org/2000/svg" id="mouse">
    <g clip-path="url(#clip0)" fill="#D4C17F">
      <path d="M19.969 0C13.48 0 8.203 5.278 8.203 11.766v16.468C8.203 34.722 13.481 40 19.97 40s11.766-5.278 11.766-11.766V11.766C31.735 5.278 26.457 0 19.969 0zm9.366 28.234c0 5.164-4.202 9.366-9.366 9.366s-9.366-4.202-9.366-9.366V11.766c0-5.164 4.202-9.366 9.366-9.366s9.366 4.202 9.366 9.366v16.468z"></path>
      <path d="M19.97 7.957a1.2 1.2 0 0 0-1.2 1.2v5.523a1.2 1.2 0 0 0 2.4 0V9.157a1.2 1.2 0 0 0-1.2-1.2z"></path>
    </g>
    <defs>
      <clipPath id="clip0">
        <path fill="#fff" d="M0 0h40v40H0z"></path>
      </clipPath>
    </defs>
  </symbol>
  <symbol viewBox="0 0 21 21" xmlns="http://www.w3.org/2000/svg" id="phone">
    <g clip-path="url(#clip0)">
      <path d="M20.986 17.284a1.611 1.611 0 0 0-.799-1.194l-5.18-2.983a1.626 1.626 0 0 0-1.958.26l-1.02 1.02a.748.748 0 0 1-1 .056 29.49 29.49 0 0 1-2.354-2.118 29.52 29.52 0 0 1-2.117-2.354.748.748 0 0 1 .056-1l1.02-1.02a1.625 1.625 0 0 0 .259-1.957L4.91.814a1.611 1.611 0 0 0-1.194-.8 1.61 1.61 0 0 0-1.36.461L.818 2.013C-.255 3.086-.272 5.049.77 7.54c1.002 2.395 2.871 5.032 5.264 7.425 2.393 2.393 5.03 4.263 7.426 5.264 1.226.513 2.324.77 3.252.77.956 0 1.73-.273 2.275-.818l1.538-1.538c.36-.36.528-.855.461-1.36zm-6.319-3.587l5.18 2.983c.257.147.426.4.465.693a.934.934 0 0 1-.176.683l-6.885-3.93.28-.279c.3-.3.768-.362 1.136-.15zM3.627.688a.936.936 0 0 1 .693.465l2.983 5.18a.944.944 0 0 1-.15 1.137l-.257.257L2.946.865a.931.931 0 0 1 .681-.177zm14.88 19.013c-.853.852-2.597.817-4.785-.098-2.316-.969-4.875-2.786-7.207-5.118-2.332-2.332-4.15-4.891-5.117-7.207C.483 5.09.447 3.347 1.299 2.494l1.142-1.142 3.957 6.873-.265.266a1.427 1.427 0 0 0-.105 1.906 30.17 30.17 0 0 0 2.166 2.41 30.202 30.202 0 0 0 2.409 2.165c.57.459 1.389.414 1.907-.104l.242-.242 6.894 3.935-1.14 1.14z"
        ></path>
    </g>
    <defs>
      <clipPath id="clip0">
        <path d="M0 0h21v21H0z"></path>
      </clipPath>
    </defs>
  </symbol>
  <symbol viewBox="0 0 21 21"  xmlns="http://www.w3.org/2000/svg" id="placeholder">
    <path d="M10.568 4.602a2.688 2.688 0 0 0-2.684 2.685 2.688 2.688 0 0 0 2.684 2.684 2.688 2.688 0 0 0 2.685-2.684 2.688 2.688 0 0 0-2.685-2.685zm0 4.602a1.92 1.92 0 0 1-1.917-1.917 1.92 1.92 0 0 1 1.917-1.918 1.92 1.92 0 0 1 1.918 1.918 1.92 1.92 0 0 1-1.918 1.917z"
      ></path>
    <path d="M15.701 2.154A7.307 7.307 0 0 0 10.501 0a7.306 7.306 0 0 0-5.2 2.154c-2.571 2.57-2.89 7.407-.693 10.337L10.501 21l5.883-8.498c2.207-2.941 1.888-7.778-.683-10.348zm.061 9.9l-5.261 7.598-5.27-7.61c-1.994-2.658-1.708-7.026.612-9.346A6.544 6.544 0 0 1 10.501.767c1.76 0 3.413.685 4.658 1.93 2.32 2.32 2.606 6.687.603 9.357z"
      ></path>
  </symbol>
  <symbol viewBox="0 0 80 80" fill="none" xmlns="http://www.w3.org/2000/svg" id="testimonials1">
    <path d="M73.333 45.333c.738 0 1.334-.597 1.334-1.333v-5.333c0-.736-.596-1.334-1.334-1.334h-6.666V36A1.333 1.333 0 1 0 64 36v1.333H26.667V36A1.334 1.334 0 0 0 24 36v1.333h-6.667c-.735 0-1.333.598-1.333 1.334V44c0 .736.598 1.333 1.333 1.333h56zm-54.666-2.666V40H72v2.667H18.667zM48 29.333c-2.156 0-3.55 1.639-3.701 1.827a1.326 1.326 0 0 0 .188 1.861 1.34 1.34 0 0 0 1.874-.17c.006-.01.728-.85 1.639-.85.91 0 1.632.84 1.632.84a1.332 1.332 0 0 0 1.876.194 1.332 1.332 0 0 0 .193-1.875c-.152-.188-1.545-1.827-3.701-1.827z"
      fill="#D4C17F"></path>
    <path d="M73.333 56c.738 0 1.334-.597 1.334-1.333v-5.334c0-.736-.596-1.333-1.334-1.333h-6.666v-1.333a1.333 1.333 0 1 0-2.667 0V48H26.667v-1.333a1.334 1.334 0 0 0-2.667 0V48h-6.667c-.735 0-1.333.597-1.333 1.333v5.334c0 .736.598 1.333 1.333 1.333h56zm-54.666-2.667v-2.666H72v2.666H18.667zm36.298-27.16a1.33 1.33 0 0 0 1.876.195 1.332 1.332 0 0 0 .194-1.875c-.152-.188-1.546-1.826-3.702-1.826-2.156 0-3.55 1.638-3.701 1.826a1.326 1.326 0 0 0 .188 1.862c.565.47 1.401.386 1.873-.17.007-.01.73-.852 1.64-.852.911 0 1.632.84 1.632.84zM1.34 17.467c.068.681.641 1.2 1.327 1.2h8c.685 0 1.258-.519 1.326-1.2l1.334-13.334A1.333 1.333 0 0 0 12 2.667H8V1.333a1.334 1.334 0 0 0-2.666 0v1.334h-4A1.332 1.332 0 0 0 .007 4.133L1.34 17.467zm9.187-12.134L9.46 16H3.873L2.807 5.333h7.72z"
      fill="#D4C17F"></path>
    <path d="M37.333 30.667c0 1.49.61 2.877 1.716 3.902a1.33 1.33 0 0 0 1.884-.07c.5-.54.47-1.385-.07-1.886A2.628 2.628 0 0 1 40 30.667a2.67 2.67 0 0 1 1.75-2.491 1.336 1.336 0 0 0 .445-2.23A2.628 2.628 0 0 1 41.334 24c0-1.387 1.092-2.547 2.486-2.643a1.332 1.332 0 0 0 .892-2.23A2.654 2.654 0 0 1 44 17.333c0-1.386 1.092-2.546 2.485-2.642a1.332 1.332 0 0 0 .892-2.231 2.66 2.66 0 0 1-.71-1.793c0-1.192.812-2.244 1.973-2.559a1.332 1.332 0 0 0 .89-1.783 2.689 2.689 0 0 1-.197-.992A2.67 2.67 0 0 1 52 2.667a2.67 2.67 0 0 1 2.667 2.666c0 .332-.067.666-.196.992a1.332 1.332 0 0 0 .89 1.783 2.664 2.664 0 0 1 1.973 2.559 2.66 2.66 0 0 1-.711 1.793 1.334 1.334 0 0 0 .892 2.23c1.393.097 2.485 1.257 2.485 2.643a2.66 2.66 0 0 1-.71 1.794 1.334 1.334 0 0 0 .892 2.23c1.393.096 2.485 1.256 2.485 2.643 0 .74-.305 1.432-.863 1.947a1.335 1.335 0 0 0 .447 2.229 2.67 2.67 0 0 1 1.75 2.49 1.333 1.333 0 1 0 2.666 0 5.334 5.334 0 0 0-1.979-4.129A5.26 5.26 0 0 0 65.334 24c0-2.085-1.227-3.918-3.016-4.784a5.25 5.25 0 0 0 .35-1.883c0-2.085-1.228-3.917-3.017-4.784a5.25 5.25 0 0 0 .35-1.883 5.33 5.33 0 0 0-2.715-4.629A5.34 5.34 0 0 0 52 0a5.339 5.339 0 0 0-5.285 6.037A5.33 5.33 0 0 0 44 10.667c0 .648.12 1.285.35 1.882-1.79.867-3.017 2.699-3.017 4.784 0 .648.12 1.286.35 1.883-1.79.867-3.016 2.699-3.016 4.784 0 .903.224 1.768.645 2.538a5.333 5.333 0 0 0-1.979 4.129z"
      fill="#D4C17F"></path>
    <path d="M50.159 18.561a1.338 1.338 0 0 0 1.741-.72 2.06 2.06 0 0 1 .1-.204c.038.067.072.136.097.199a1.335 1.335 0 0 0 2.472-1.004c-.148-.361-.96-2.165-2.569-2.165-1.608 0-2.421 1.804-2.57 2.165a1.33 1.33 0 0 0 .729 1.73zm28.508 58.772H57.333a1.333 1.333 0 1 0 0 2.667h21.334a1.333 1.333 0 1 0 0-2.667zm0-18.666h-12v-1.334a1.333 1.333 0 1 0-2.667 0v1.334H26.667v-1.334a1.334 1.334 0 0 0-2.667 0v1.334H12c-.736 0-1.333.597-1.333 1.333v5.333c0 .736.597 1.334 1.333 1.334h4v6.666a1.334 1.334 0 0 0 2.667 0v-6.666H72v6.666a1.333 1.333 0 1 0 2.667 0v-6.666h4c.737 0 1.333-.598 1.333-1.334V60c0-.736-.596-1.333-1.333-1.333zM77.333 64h-64v-2.667h64V64z"
      fill="#D4C17F"></path>
    <path d="M20 77.333H8V22.667a1.334 1.334 0 0 0-2.667 0v54.666h-4a1.334 1.334 0 0 0 0 2.667H20a1.334 1.334 0 0 0 0-2.667zm32 0h-2.667a1.333 1.333 0 1 0 0 2.667H52a1.333 1.333 0 1 0 0-2.667zm-10.667 0H28A1.334 1.334 0 0 0 28 80h13.333a1.333 1.333 0 1 0 0-2.667z"
      fill="#D4C17F"></path>
  </symbol>
  <symbol viewBox="0 0 80 80" fill="none" xmlns="http://www.w3.org/2000/svg" id="testimonials2">
    <path d="M57.333 74.667H20c-.736 0-1.333.597-1.333 1.333v2.667a1.334 1.334 0 0 0 2.666 0v-1.334h36a1.334 1.334 0 0 0 0-2.666zm-28-41.334c0 .736.598 1.334 1.334 1.334H36c.736 0 1.333-.598 1.333-1.334v-8c0-.736-.597-1.333-1.333-1.333h-5.333c-.736 0-1.334.597-1.334 1.333v8zM32 26.667h2.667V32H32v-5.333zM17.333 16h-16C.597 16 0 16.597 0 17.333V44a1.334 1.334 0 0 0 2.667 0V18.667h14.666a1.334 1.334 0 0 0 0-2.667zM64 65.333c0 .736.597 1.334 1.333 1.334h5.334c.736 0 1.333-.598 1.333-1.334v-8c0-.736-.597-1.333-1.333-1.333h-5.334c-.736 0-1.333.597-1.333 1.333v8zm2.667-6.666h2.666V64h-2.666v-5.333zM6.667 48C.076 48 0 65.16 0 65.333c0 3.22 2.295 5.912 5.333 6.532v6.802a1.334 1.334 0 0 0 2.667 0v-6.802c3.038-.62 5.333-3.312 5.333-6.532 0-.173-.076-17.333-6.666-17.333zm0 21.333c-2.206 0-4-1.794-4-4 0-6.642 1.784-14.666 4-14.666s4 8.024 4 14.666c0 2.206-1.795 4-4 4zm8-29.333H9.333C8.597 40 8 40.597 8 41.333V44a1.334 1.334 0 0 0 2.667 0v-1.333h2.666v6.666a1.334 1.334 0 0 0 2.667 0v-8c0-.736-.597-1.333-1.333-1.333zm50.666-5.333h5.334c.736 0 1.333-.598 1.333-1.334v-8c0-.735-.597-1.333-1.333-1.333h-5.334c-.736 0-1.333.598-1.333 1.333v8c0 .736.597 1.334 1.333 1.334zm1.334-8h2.666V32h-2.666v-5.333z"
      fill="#D4C17F"></path>
    <path d="M14.667 24H9.333C8.597 24 8 24.597 8 25.333v8c0 .736.597 1.334 1.333 1.334h5.334c.736 0 1.333-.598 1.333-1.334v-8c0-.736-.597-1.333-1.333-1.333zm-1.334 8h-2.666v-5.333h2.666V32zm29.334 1.333c0 .736.597 1.334 1.333 1.334h5.333c.736 0 1.334-.598 1.334-1.334v-8c0-.736-.598-1.333-1.334-1.333H44c-.736 0-1.333.597-1.333 1.333v8zm2.666-6.666H48V32h-2.667v-5.333zM78.667 16h-16a1.334 1.334 0 0 0 0 2.667h14.666v53.578A3.946 3.946 0 0 0 76 72c-.23 0-.46.02-.685.06a5.295 5.295 0 0 0-4.648-2.727 5.295 5.295 0 0 0-4.648 2.727A4.005 4.005 0 0 0 61.334 76c0 2.205 1.794 4 4 4H76c2.205 0 4-1.795 4-4V17.333c0-.736-.597-1.333-1.333-1.333zM76 77.333H65.333A1.335 1.335 0 0 1 64 76c0-.735.599-1.333 1.333-1.333.256 0 .499.073.723.217.365.235.821.277 1.224.115.403-.163.7-.512.797-.935A2.65 2.65 0 0 1 70.667 72a2.65 2.65 0 0 1 2.59 2.064c.096.423.394.772.796.935.402.162.859.12 1.225-.115.867-.56 2.055.125 2.055 1.116 0 .735-.598 1.333-1.333 1.333zM44 18.667h5.333c.736 0 1.334-.598 1.334-1.334v-8c0-.735-.598-1.333-1.334-1.333H44c-.736 0-1.333.598-1.333 1.333v8c0 .736.597 1.334 1.333 1.334zm1.333-8H48V16h-2.667v-5.333zm-2.666 38.666c0 .736.597 1.334 1.333 1.334h5.333c.736 0 1.334-.598 1.334-1.334v-8c0-.736-.598-1.333-1.334-1.333H44c-.736 0-1.333.597-1.333 1.333v8zm2.666-6.666H48V48h-2.667v-5.333zm-14.666-24H36c.736 0 1.333-.598 1.333-1.334v-8C37.333 8.598 36.736 8 36 8h-5.333c-.736 0-1.334.598-1.334 1.333v8c0 .736.598 1.334 1.334 1.334zm1.333-8h2.667V16H32v-5.333zm7.053 53.72a1.4 1.4 0 0 0-.386.946c0 .347.146.694.386.947.254.24.6.387.947.387s.693-.147.947-.387a1.4 1.4 0 0 0 .386-.947 1.4 1.4 0 0 0-.386-.946c-.507-.494-1.387-.494-1.894 0zm-9.72-15.054c0 .736.598 1.334 1.334 1.334H36c.736 0 1.333-.598 1.333-1.334v-8c0-.736-.597-1.333-1.333-1.333h-5.333c-.736 0-1.334.597-1.334 1.333v8zM32 42.667h2.667V48H32v-5.333z"
      fill="#D4C17F"></path>
    <path d="M26.667 57.333c0 .736.597 1.334 1.333 1.334h4v12a1.334 1.334 0 0 0 2.667 0v-12h10.666v12a1.334 1.334 0 0 0 2.667 0v-12h4A1.334 1.334 0 0 0 52 56H28c-.736 0-1.333.597-1.333 1.333zm37.333-8c0 .736.597 1.334 1.333 1.334h5.334c.736 0 1.333-.598 1.333-1.334v-8c0-.736-.597-1.333-1.333-1.333h-5.334c-.736 0-1.333.597-1.333 1.333v8zm2.667-6.666h2.666V48h-2.666v-5.333z"
      fill="#D4C17F"></path>
    <path d="M57.333 0H22.667c-.736 0-1.334.597-1.334 1.333v69.334a1.334 1.334 0 0 0 2.667 0v-68h32v68a1.334 1.334 0 0 0 2.667 0V1.333C58.667.597 58.069 0 57.333 0z" fill="#D4C17F"></path>
  </symbol>
  <symbol viewBox="0 0 80 80" fill="none" xmlns="http://www.w3.org/2000/svg" id="testimonials3">
    <g clip-path="url(#clip0)" fill="#D4C17F">
      <path d="M53.39 4.622c.182 0 .366-.037.543-.117.382-.171.768-.332 1.16-.48a1.332 1.332 0 0 0 .774-1.72 1.337 1.337 0 0 0-1.72-.775c-.44.168-.877.35-1.304.541a1.332 1.332 0 0 0 .546 2.55zm-.057 28.916c.738 0 1.334-.596 1.334-1.333v-.231c0-.35.022-.695.066-1.033a1.333 1.333 0 0 0-1.146-1.496 1.324 1.324 0 0 0-1.498 1.148c-.058.45-.09.916-.09 1.381v.23a1.334 1.334 0 0 0 1.334 1.334zm-6.666.329c.737 0 1.333-.597 1.333-1.333v-1.355a1.333 1.333 0 1 0-2.667 0v1.355c0 .736.596 1.333 1.334 1.333zm7.656-21.089c-.43.236-.85.49-1.254.761a1.332 1.332 0 1 0 1.481 2.216c.344-.228.697-.442 1.06-.642.644-.355.88-1.167.525-1.811a1.335 1.335 0 0 0-1.812-.524zm-18.913-.136a1.33 1.33 0 0 0 1.837.42 1.332 1.332 0 0 0 .421-1.837 23.51 23.51 0 0 0-.788-1.178 1.333 1.333 0 1 0-2.17 1.552c.245.34.478.688.7 1.043zm24.378-9.82c.055 0 .112-.004.168-.01.412-.053.83-.093 1.25-.122a1.334 1.334 0 0 0 1.244-1.42A1.338 1.338 0 0 0 61.031.03c-.475.03-.944.077-1.408.136a1.333 1.333 0 1 0 .165 2.656zm-4.944 21.9a1.335 1.335 0 0 0 1.956 1.813c.277-.299.583-.581.908-.84a1.332 1.332 0 0 0 .215-1.873 1.332 1.332 0 0 0-1.874-.215c-.43.341-.836.718-1.205 1.115zm-12.092-11.66a1.33 1.33 0 0 0 1.837-.42c.223-.355.456-.703.7-1.043a1.333 1.333 0 0 0-2.17-1.552 22.59 22.59 0 0 0-.787 1.178 1.333 1.333 0 0 0 .42 1.837zm10.581 26.912c.738 0 1.334-.597 1.334-1.333v-.667a1.333 1.333 0 1 0-2.667 0v.667c0 .736.596 1.333 1.333 1.333zm-6.694-12.883a1.337 1.337 0 0 0 1.503-1.141c.054-.411.127-.816.218-1.216a1.333 1.333 0 1 0-2.601-.59 17.32 17.32 0 0 0-.262 1.447 1.334 1.334 0 0 0 1.142 1.5zm-9.078-9.911c.134.394.254.793.364 1.198a1.335 1.335 0 0 0 1.636.936c.166-.044.31-.124.439-.219a1.317 1.317 0 0 0 .79.267c.584 0 1.123-.39 1.285-.984.11-.405.229-.804.363-1.199a1.333 1.333 0 0 0-.832-1.692c-.64-.218-1.314.095-1.606.687-.292-.592-.967-.905-1.607-.687a1.332 1.332 0 0 0-.832 1.692zm10.224-8.972c.311 0 .623-.108.875-.326.316-.275.64-.542.97-.796a1.333 1.333 0 0 0-1.625-2.114c-.374.288-.74.587-1.094.898a1.333 1.333 0 0 0 .874 2.338zm1.036 9.334c-.293.39-.57.792-.83 1.205a1.335 1.335 0 0 0 1.126 2.044c.443 0 .876-.22 1.13-.622a14.7 14.7 0 0 1 .705-1.022 1.335 1.335 0 0 0-2.13-1.605zm12.482-6.848a16.73 16.73 0 0 0-1.458.175 1.334 1.334 0 0 0 .432 2.631 14.47 14.47 0 0 1 1.231-.148 1.334 1.334 0 0 0 1.227-1.433 1.32 1.32 0 0 0-1.432-1.225zm4.933-7.774c.415.067.828.146 1.236.235a1.333 1.333 0 0 0 .57-2.604c-.458-.101-.92-.188-1.387-.263a1.33 1.33 0 0 0-1.526 1.107 1.33 1.33 0 0 0 1.107 1.525zm2.281 8.732a17.46 17.46 0 0 0-1.401-.435 1.34 1.34 0 0 0-1.63.947 1.334 1.334 0 0 0 .947 1.631c.401.105.796.228 1.183.368a1.333 1.333 0 1 0 .901-2.51zm-6.393 9.668a1.333 1.333 0 0 0-1.265 1.398c.036.736.613 1.296 1.397 1.265a8.33 8.33 0 0 1 1.237.033 1.334 1.334 0 0 0 .273-2.653 10.736 10.736 0 0 0-1.642-.043zM77.681 8.872a1.331 1.331 0 0 0 1.884.087c.544-.496.583-1.34.087-1.884-.16-.175-.323-.347-.487-.515a1.333 1.333 0 0 0-1.907 1.867c.145.145.286.295.423.445zM57.333 50.64h-16a1.333 1.333 0 1 0 0 2.667h16c3.739 0 6.667-2.928 6.667-6.667v-2.666c0-.736-.596-1.334-1.333-1.334H17.333c-.737 0-1.333.598-1.333 1.334v2.666c0 3.739 2.928 6.667 6.667 6.667h12v6.667a1.333 1.333 0 1 0 2.666 0v-8c0-.736-.596-1.334-1.333-1.334H22.667c-2.244 0-4-1.757-4-4v-1.333h42.666v1.333c0 2.243-1.756 4-4 4zm13.314-19.238c.013.188.02.38.02.572a1.333 1.333 0 1 0 2.666 0c0-.256-.01-.51-.028-.762a1.326 1.326 0 0 0-1.424-1.235 1.334 1.334 0 0 0-1.234 1.425zm-2.817-7.319a1.335 1.335 0 0 0 .12 1.883c.309.272.598.57.86.884a1.333 1.333 0 0 0 2.049-1.707 10.63 10.63 0 0 0-1.147-1.178 1.333 1.333 0 0 0-1.881.118zm-26.497 6.483a1.333 1.333 0 1 0-2.666 0v1.482a1.333 1.333 0 1 0 2.666 0v-1.482zM40 36.64c-.737 0-1.333.598-1.333 1.334v.666a1.333 1.333 0 1 0 2.666 0v-.666c0-.736-.596-1.334-1.333-1.334zm5.333 2a1.333 1.333 0 1 0 2.667 0v-.666a1.333 1.333 0 1 0-2.667 0v.666zm-4-14.666c0-.21.003-.419.01-.628a1.326 1.326 0 0 0-.83-1.263c-.051-.022-.109-.022-.162-.038-.1-.027-.195-.067-.303-.07l-.04-.001-.008.001-.008-.001-.04.001c-.108.003-.204.043-.303.07-.053.016-.112.016-.161.038a1.325 1.325 0 0 0-.83 1.263c.006.21.009.417.009.628v.667a1.333 1.333 0 1 0 2.666 0v-.667zM32 38.64a1.333 1.333 0 1 0 2.667 0v-.666a1.333 1.333 0 1 0-2.667 0v.666zm1.333-4.773c.738 0 1.334-.597 1.334-1.333v-1.355a1.333 1.333 0 1 0-2.667 0v1.355c0 .736.596 1.333 1.333 1.333zM28 38.64v-.666a1.333 1.333 0 1 0-2.666 0v.666a1.333 1.333 0 1 0 2.666 0zM9.312 27.022a1.333 1.333 0 0 0 1.879-.172 7.8 7.8 0 0 1 .86-.884c.552-.488.605-1.33.118-1.883a1.33 1.33 0 0 0-1.881-.119c-.412.363-.799.76-1.148 1.18a1.336 1.336 0 0 0 .172 1.878z"></path>
      <path d="M73.333 63.974h-28v-6.667a1.333 1.333 0 1 0-2.666 0v8c0 .736.596 1.333 1.333 1.333h28v6.667c0 2.205-1.795 4-4 4H12c-2.205 0-4-1.795-4-4V66.64h30.777a1.333 1.333 0 1 0 0-2.666H6.667c-.738 0-1.334.597-1.334 1.333v8A6.674 6.674 0 0 0 12 79.974h56a6.674 6.674 0 0 0 6.667-6.667v-8c0-.736-.596-1.333-1.334-1.333z"></path>
      <path d="M32 70.64v2.667a1.333 1.333 0 1 0 2.667 0V70.64a1.333 1.333 0 1 0-2.667 0zM1.393 25.975l-.048-.001c-.713 0-1.306.566-1.33 1.286-.01.238-.015.475-.015.714a1.333 1.333 0 1 0 2.667 0c0-.208.005-.414.012-.62a1.332 1.332 0 0 0-1.286-1.379zm5.76-8.561c.299-.288.61-.563.93-.824a1.332 1.332 0 1 0-1.687-2.066c-.377.31-.744.634-1.093.973a1.333 1.333 0 1 0 1.85 1.917zm-3.525 2.189a1.334 1.334 0 0 0-1.79.595c-.218.434-.42.881-.602 1.336a1.334 1.334 0 0 0 2.476.99c.153-.385.324-.762.51-1.132a1.332 1.332 0 0 0-.594-1.789zM6.03 5.563c.225 0 .454-.057.663-.177.362-.208.728-.404 1.103-.587.66-.325.932-1.125.608-1.785a1.335 1.335 0 0 0-1.785-.608c-.427.21-.846.432-1.256.668a1.334 1.334 0 0 0 .666 2.49zM18.667 70.64v2.667a1.333 1.333 0 1 0 2.666 0V70.64a1.333 1.333 0 1 0-2.666 0zm59.354-47.373a1.334 1.334 0 0 0 .743-1.733 16.986 16.986 0 0 0-.603-1.336 1.332 1.332 0 1 0-2.383 1.195c.186.369.357.746.51 1.132a1.333 1.333 0 0 0 1.733.742zm1.964 3.993c-.024-.737-.677-1.328-1.378-1.285a1.332 1.332 0 0 0-1.286 1.379c.007.206.012.412.012.62a1.333 1.333 0 1 0 2.667 0c0-.239-.005-.476-.015-.714zM74.636 3.074c-.41-.236-.828-.459-1.255-.668a1.338 1.338 0 0 0-1.785.608c-.324.66-.052 1.46.608 1.785.375.183.741.379 1.101.587a1.335 1.335 0 0 0 1.33-2.312zM61.333 73.307V70.64a1.333 1.333 0 1 0-2.666 0v2.667a1.333 1.333 0 1 0 2.666 0zm-13.333 0V70.64a1.333 1.333 0 1 0-2.666 0v2.667a1.333 1.333 0 1 0 2.666 0zm25.604-58.783a1.333 1.333 0 1 0-1.688 2.065c.321.262.632.537.93.825a1.332 1.332 0 0 0 1.85-1.917c-.348-.34-.715-.663-1.092-.973zM8.119 29.977a1.321 1.321 0 0 0-1.426 1.235 11.34 11.34 0 0 0-.026.762 1.333 1.333 0 1 0 2.666 0c0-.192.007-.384.02-.572a1.334 1.334 0 0 0-1.234-1.425zm18.294-.532a1.334 1.334 0 0 0-1.146 1.495c.044.339.066.683.066 1.034v.23a1.332 1.332 0 1 0 2.667 0v-.23c0-.466-.03-.93-.09-1.382a1.327 1.327 0 0 0-1.497-1.147zm-1.506-25.42c.392.147.778.309 1.16.48a1.333 1.333 0 0 0 1.09-2.433 24.46 24.46 0 0 0-1.305-.542 1.338 1.338 0 0 0-1.718.775 1.332 1.332 0 0 0 .773 1.72zm-.517 11.088c.362.2.717.414 1.06.642a1.333 1.333 0 0 0 1.481-2.216c-.406-.27-.824-.525-1.254-.761a1.335 1.335 0 0 0-1.812.524 1.335 1.335 0 0 0 .526 1.81zM1.333 9.307c.362 0 .723-.147.986-.435.137-.15.279-.3.422-.445A1.334 1.334 0 0 0 .835 6.561c-.164.168-.327.34-.487.514a1.334 1.334 0 0 0 .985 2.232zm20.959 16.388c.325.259.63.541.908.84a1.334 1.334 0 1 0 1.956-1.813c-.37-.398-.775-.774-1.205-1.115a1.333 1.333 0 1 0-1.659 2.088zm7.461-5.527a1.331 1.331 0 0 0 1.84.419c.622-.393.81-1.217.417-1.84a18.475 18.475 0 0 0-.831-1.205 1.336 1.336 0 0 0-1.868-.263 1.335 1.335 0 0 0-.263 1.868c.25.33.484.67.705 1.021zm.617-13.082c.33.254.654.521.97.796.252.22.564.326.875.326a1.333 1.333 0 0 0 .875-2.339c-.355-.31-.72-.609-1.095-.897a1.334 1.334 0 0 0-1.625 2.113zm-18.129-3.9c.095 0 .19-.01.286-.03.41-.09.822-.169 1.237-.236a1.331 1.331 0 0 0 1.107-1.525A1.327 1.327 0 0 0 13.345.288c-.468.075-.93.162-1.388.263a1.333 1.333 0 0 0 .284 2.635zm6.552-.496c.422.03.839.07 1.251.121a1.333 1.333 0 0 0 .333-2.645A23.175 23.175 0 0 0 18.971.03a1.34 1.34 0 0 0-1.42 1.241 1.334 1.334 0 0 0 1.242 1.419zm13.852 20.45a1.333 1.333 0 0 0-1.006 1.594c.092.4.164.805.22 1.216a1.336 1.336 0 0 0 1.501 1.141 1.334 1.334 0 0 0 1.143-1.5c-.067-.488-.155-.97-.262-1.447a1.337 1.337 0 0 0-1.596-1.005zm-20.712-8.898c.15 0 .302-.026.451-.079.387-.14.781-.262 1.183-.368a1.335 1.335 0 0 0 .948-1.63 1.338 1.338 0 0 0-1.631-.948c-.473.125-.941.272-1.401.436a1.333 1.333 0 0 0 .45 2.589zm6.559-.89c.415.032.824.082 1.23.148a1.33 1.33 0 0 0 1.53-1.099 1.334 1.334 0 0 0-1.097-1.532 16.805 16.805 0 0 0-1.458-.175 1.332 1.332 0 1 0-.205 2.658zm-2.124 10.671c.045 0 .092-.001.139-.007a8.317 8.317 0 0 1 1.237-.033 1.315 1.315 0 0 0 1.397-1.265 1.333 1.333 0 0 0-1.265-1.398 10.7 10.7 0 0 0-1.643.043 1.334 1.334 0 1 0 .135 2.66z"></path>
    </g>
    <defs>
      <clipPath id="clip0">
        <path fill="#fff" d="M0 0h80v80H0z"></path>
      </clipPath>
    </defs>
  </symbol>
  <symbol viewBox="0 0 80 80" fill="none" xmlns="http://www.w3.org/2000/svg" id="testimonials4">
    <path d="M20 68.001H1.333a1.333 1.333 0 1 0 0 2.667H20A1.333 1.333 0 1 0 20 68zm-4-2.669c8.823 0 16-7.179 16-16 0-4.418-1.761-8.53-4.96-11.583a1.335 1.335 0 0 0-1.841 1.93 13.227 13.227 0 0 1 4.134 9.653c0 7.352-5.981 13.333-13.333 13.333S2.667 56.684 2.667 49.332c0-7.354 5.981-13.334 13.333-13.334a1.333 1.333 0 1 0 0-2.666c-8.822 0-16 7.177-16 16 0 8.821 7.177 16 16 16z"
      fill="#D4C17F"></path>
    <path d="M22.667 27.998h.676L15.64 46.701a2.662 2.662 0 0 0-2.307 2.63A2.67 2.67 0 0 0 16 51.999a2.67 2.67 0 0 0 2.667-2.666c0-.611-.214-1.166-.56-1.616l7.524-18.27 8.438 12.252a1.33 1.33 0 0 0 1.854.343c.608-.419.76-1.248.341-1.855L27.87 27.998h2.798c2.205 0 4-1.794 4-4s-1.795-4-4-4h-8c-.738 0-1.333.596-1.333 1.334v5.333c0 .736.595 1.333 1.333 1.333zM24 22.665h6.667a1.334 1.334 0 0 1 0 2.667H24v-2.667zm38.667 12c0 .736.596 1.333 1.333 1.333 7.352 0 13.333 5.98 13.333 13.334 0 7.352-5.981 13.333-13.333 13.333s-13.333-5.982-13.333-13.333c0-3.996 1.77-7.747 4.857-10.294a1.334 1.334 0 0 0-1.699-2.057A15.962 15.962 0 0 0 48 49.331c0 8.822 7.177 16 16 16s16-7.178 16-16-7.177-16-16-16c-.737 0-1.333.597-1.333 1.334zM41.333 68.001H28a1.333 1.333 0 1 0 0 2.667h13.333a1.333 1.333 0 1 0 0-2.667z"
      fill="#D4C17F"></path>
    <path d="M41.333 42.854v-4.189a1.333 1.333 0 1 0 0-2.667h-2.666a1.333 1.333 0 1 0 0 2.667v4.19c-2.295.595-4 2.665-4 5.143 0 2.478 1.705 4.547 4 5.145v4.189a1.333 1.333 0 1 0 0 2.666h2.666a1.333 1.333 0 1 0 0-2.666v-4.19c2.295-.597 4-2.666 4-5.144s-1.705-4.548-4-5.144zM40 50.665a2.67 2.67 0 0 1-2.667-2.667A2.67 2.67 0 0 1 40 45.332a2.67 2.67 0 0 1 2.667 2.666A2.67 2.67 0 0 1 40 50.665zm21.945-3.013a2.646 2.646 0 0 0-.612 1.68A2.67 2.67 0 0 0 64 51.998a2.67 2.67 0 0 0 2.667-2.666c0-1.32-.967-2.41-2.226-2.623l-6.017-16.044h9.519c1.596 0 2.524-1.276 2.698-2.405l1.332-6.667a1.331 1.331 0 0 0-1.306-1.595h-12a1.332 1.332 0 1 0 0 2.667H69.04l-1.019 5.101c-.02.092-.077.222-.078.232H57.424L53.25 16.864c-.002-.006-.006-.008-.007-.014-.003-.005-.002-.01-.003-.014l-2.667-6.667a1.334 1.334 0 1 0-2.477.99l2.43 6.068-5.015 8.776a1.331 1.331 0 0 0 1.156 1.995 1.33 1.33 0 0 0 1.158-.672l3.925-6.868 3.208 8.556-10.161 11.43a1.332 1.332 0 1 0 1.992 1.773l9.228-10.38 5.93 15.815zm16.722 20.349H57.333a1.333 1.333 0 1 0 0 2.667h21.334a1.333 1.333 0 1 0 0-2.667zm-26.667 0h-2.667a1.333 1.333 0 1 0 0 2.667H52A1.333 1.333 0 1 0 52 68z"
      fill="#D4C17F"></path>
  </symbol>
  <symbol id="play" viewBox="0 0 100 100" fill="none" xmlns="http://www.w3.org/2000/svg">
    <path d="M50 0C22.3861 0 0 22.3857 0 50C0 77.6143 22.3861 100 50 100C77.6139 100 100 77.6143 100 50C100 22.3857 77.6139 0 50 0ZM67.2812 52.6504L42.2812 68.2754C41.7754 68.5912 41.2002 68.75 40.625 68.75C40.1039 68.75 39.582 68.6203 39.1098 68.3578C38.1164 67.807 37.5 66.7617 37.5 65.625V34.375C37.5 33.2383 38.1164 32.193 39.1098 31.6422C40.1031 31.0883 41.3178 31.1219 42.2812 31.7246L67.2812 47.3496C68.1945 47.9219 68.75 48.9229 68.75 50C68.75 51.0771 68.1945 52.0783 67.2812 52.6504Z" fill="#D4C17F"/>
  </symbol>
</svg>